<svg xmlns="http://www.w3.org/2000/svg" viewBox="0 0 512 512" width="512" height="512" color="#000" fill="currentColor"><g transform="translate(256.0,256.0) rotate(-45) scale(1.12) translate(-256.0,-256.0)"><path fill-rule="evenodd" d="M180.0,30.0 L332.0,30.0 L332.0,150.0 L180.0,150.0 Z M216.0,30.0 L296.0,30.0 L282.0,96.0 L230.0,96.0 Z M304.0,150.0 L284.0,183.6 L304.0,217.2 L284.0,250.8 L304.0,284.4 L284.0,318.0 L304.0,351.6 L284.0,385.2 L304.0,418.8 L284.0,452.4 L304.0,486.0 L228.0,486.0 L208.0,452.4 L228.0,418.8 L208.0,385.2 L228.0,351.6 L208.0,318.0 L228.0,284.4 L208.0,250.8 L228.0,217.2 L208.0,183.6 L228.0,150.0 Z"/></g></svg>
